<svg id="Layer_1" data-name="Layer 1" xmlns="http://www.w3.org/2000/svg" viewBox="0 0 225 150"><defs><style>.cls-1{fill:#b2b2b2;}.cls-2{fill:#333;}.cls-3{fill:#666;}.cls-4{fill:#fbfbfb;}.cls-5{fill:#fafafa;}</style></defs><path class="cls-1" d="M1073,565c0,15.63,0,31.26,0,46.88,0,2.31-.28,3.15-3,3.15Q960.5,614.85,851,615c-2.69,0-3-.84-3-3.15.1-15.62,0-31.25,0-46.88q50.4,0,100.79,0c2.14,0,4.28.3,6.43.46-.5,1.74-2.36,1.61-3.48,2.5-3.73,2.95-5.41,6.59-4,11.31s4.74,7.22,9.49,7.28a9.39,9.39,0,0,0,9.68-7c1.45-4.63-.07-8.41-3.82-11.39-1.12-.89-2.93-.91-3.37-2.65,2.14-.16,4.28-.46,6.42-.46Q1019.56,565,1073,565Z" transform="translate(-848 -465)"/><path class="cls-2" d="M848.05,515c0-15.63.05-31.26,0-46.88,0-2.31.28-3.15,3-3.15q109.53.15,219.06,0c2.69,0,3,.84,3,3.15-.1,15.62,0,31.25,0,46.88l-90.28.23c-.31-7.55-2.22-14.39-9.51-18.16-10.87-5.62-21.71-4.68-32.33.9-.94.5-2.51,1.1-1.86,2.49,1.61,3.44,2.93,7.3,5.47,9.91,1.64,1.69,3.61-1.83,5.62-2.69a15.59,15.59,0,0,1,11.1-1c4.16,1.25,6.59,3.66,5.89,8.32Z" transform="translate(-848 -465)"/><path class="cls-3" d="M982.67,515.26,1073,515V565q-53.4,0-106.79,0c-2.14,0-4.28.3-6.42.46h-4.47c-2.15-.16-4.29-.46-6.43-.46q-50.4,0-100.79,0V515l119,0c.28,3.28-1.64,5.68-3.46,8-3,3.77-6.23,7.32-9.24,11.06A23.71,23.71,0,0,0,949,547.22c-.76,9.16,1.08,11,10.11,10.83,2.45-.06,3.54-.38,3-3.29-1-6.15,1.21-11.39,5.4-15.86,2.26-2.42,4.59-4.78,6.91-7.14C979,527.14,982.34,522,982.67,515.26Z" transform="translate(-848 -465)"/><path class="cls-4" d="M955.27,565.46h4.47c.44,1.74,2.25,1.76,3.37,2.65,3.75,3,5.27,6.76,3.82,11.39a9.39,9.39,0,0,1-9.68,7c-4.75-.06-8.11-2.56-9.49-7.28s.3-8.36,4-11.31C952.91,567.07,954.77,567.2,955.27,565.46Z" transform="translate(-848 -465)"/><path class="cls-5" d="M982.67,515.26c-.33,6.7-3.71,11.88-8.24,16.5-2.32,2.36-4.65,4.72-6.91,7.14-4.19,4.47-6.43,9.71-5.4,15.86.49,2.91-.6,3.23-3,3.29-9,.22-10.87-1.67-10.11-10.83a23.71,23.71,0,0,1,5.39-13.12c3-3.74,6.27-7.29,9.24-11.06,1.82-2.31,3.74-4.71,3.46-8,.7-4.66-1.73-7.07-5.89-8.32a15.59,15.59,0,0,0-11.1,1c-2,.86-4,4.38-5.62,2.69-2.54-2.61-3.86-6.47-5.47-9.91-.65-1.39.92-2,1.86-2.49,10.62-5.58,21.46-6.52,32.33-.9C980.45,500.87,982.36,507.71,982.67,515.26Z" transform="translate(-848 -465)"/></svg>